<?xml version="1.0" encoding="UTF-8"?>
<svg version="1.1" xmlns="http://www.w3.org/2000/svg" width="307" height="301">
<path d="M0 0 C101.31 0 202.62 0 307 0 C307 99.33 307 198.66 307 301 C205.69 301 104.38 301 0 301 C0 201.67 0 102.34 0 0 Z " fill="#87C7FE" transform="translate(0,0)"/>
<path d="M0 0 C7.59240283 4.35410961 12.74716699 9.30400098 15.5625 17.75 C15.64608958 19.96089945 15.66981764 22.17426078 15.66015625 24.38671875 C15.65693359 25.68544922 15.65371094 26.98417969 15.65039062 28.32226562 C15.64203531 29.69401108 15.63357037 31.06575587 15.625 32.4375 C15.61998335 33.82096195 15.61542073 35.20442563 15.61132812 36.58789062 C15.59952529 39.97530395 15.58306019 43.36263033 15.5625 46.75 C16.34786133 46.7185791 17.13322266 46.6871582 17.94238281 46.65478516 C21.56545179 46.52862187 25.1880569 46.45157274 28.8125 46.375 C30.04742187 46.32472656 31.28234375 46.27445313 32.5546875 46.22265625 C42.18814157 46.07054908 50.2951768 47.95934047 57.59667969 54.60009766 C59.13374145 56.25943686 60.36902294 57.82783233 61.5625 59.75 C62.10390625 60.61882812 62.6453125 61.48765625 63.203125 62.3828125 C64.97332183 66.7676104 64.89528172 70.45363406 64.75 75.125 C64.73646484 75.95644531 64.72292969 76.78789063 64.70898438 77.64453125 C64.67389059 79.67997066 64.62009228 81.71507291 64.5625 83.75 C63.9025 83.75 63.2425 83.75 62.5625 83.75 C61.964375 83.13125 61.36625 82.5125 60.75 81.875 C58.72980813 79.56365354 58.72980813 79.56365354 55.9375 79.0625 C53.5625 77.75 53.5625 77.75 52.94140625 75.83984375 C52.64185241 74.25194332 52.35314202 72.66196638 52.07421875 71.0703125 C51.31225009 67.61527904 49.84909944 65.41769935 47.5625 62.75 C43.16450461 60.10272833 39.79808534 59.35204179 34.6953125 59.23828125 C32.74818359 59.18510742 32.74818359 59.18510742 30.76171875 59.13085938 C29.40364997 59.10782742 28.04557698 59.08504272 26.6875 59.0625 C25.33720761 59.02926952 23.98694571 58.9947747 22.63671875 58.95898438 C16.27705071 58.80456231 9.923662 58.73732836 3.5625 58.75 C3.54791748 57.58952148 3.53333496 56.42904297 3.51831055 55.23339844 C3.46030059 50.92432982 3.38306793 46.6157823 3.30004883 42.30712891 C3.26681216 40.44295718 3.23877627 38.57868513 3.21606445 36.71435547 C3.18249512 34.03309409 3.13017891 31.35275104 3.07421875 28.671875 C3.06782883 27.83944275 3.0614389 27.0070105 3.05485535 26.14935303 C2.941881 21.69464029 2.73470564 19.13692171 -0.4375 15.75 C-0.4375 15.09 -0.4375 14.43 -0.4375 13.75 C-1.22125 13.440625 -2.005 13.13125 -2.8125 12.8125 C-5.4375 11.75 -5.4375 11.75 -7.4375 10.75 C-13.34895108 10.13847058 -16.64938125 10.95047802 -21.67578125 14.0703125 C-25.84704279 18.04734678 -26.78240056 22.55610784 -26.92985535 28.0710144 C-26.93944023 29.23855759 -26.93944023 29.23855759 -26.94921875 30.4296875 C-26.96716995 31.24245148 -26.98512115 32.05521545 -27.00361633 32.89260864 C-27.05748358 35.4700208 -27.09153836 38.0472503 -27.125 40.625 C-27.15819399 42.38023362 -27.19268557 44.13544321 -27.22851562 45.890625 C-27.31319611 50.17695103 -27.38011897 54.46322512 -27.4375 58.75 C-31.7275 58.75 -36.0175 58.75 -40.4375 58.75 C-39.7775 57.43 -39.1175 56.11 -38.4375 54.75 C-36.44669936 49.95026147 -36.27491893 45.85449138 -36.6875 40.75 C-36.72746094 40.06421875 -36.76742187 39.3784375 -36.80859375 38.671875 C-37.10993192 34.40427494 -37.97463912 30.7554524 -39.4375 26.75 C-40.59346644 19.52520974 -37.18671893 13.71391241 -33.4375 7.75 C-25.20014948 -2.11520789 -11.67598489 -5.61211774 0 0 Z " fill="#FCFDFF" transform="translate(163.4375,24.25)"/>
<path d="M0 0 C2.66666667 2.66666667 5.33333333 5.33333333 8 8 C6.82891845 10.53734336 5.62548917 12.47364605 3.875 14.6875 C1.4451668 18.98020531 1.16903302 22.17367662 2 27 C3.29037592 30.5813107 5.07123282 33.25757471 8.08081055 35.66333008 C12.10041392 37.50386938 15.64570171 37.47793486 20.01953125 37.51171875 C20.87810226 37.52966995 21.73667328 37.54762115 22.6212616 37.56611633 C25.3516251 37.62010741 28.08181492 37.65407874 30.8125 37.6875 C32.6686439 37.720683 34.52476492 37.75517358 36.38085938 37.79101562 C40.92044738 37.87582734 45.45998486 37.94269177 50 38 C50.00410889 39.10923828 50.00821777 40.21847656 50.01245117 41.36132812 C50.03434786 45.50664705 50.08874514 49.65103093 50.15258789 53.79589844 C50.17567653 55.58421821 50.19014204 57.3726722 50.19555664 59.16113281 C50.2049137 61.74368038 50.24604721 64.32414358 50.29296875 66.90625 C50.2890361 67.69616333 50.28510345 68.48607666 50.28105164 69.29992676 C50.43617108 75.30302154 52.27682236 79.30316452 56 84 C59.6094455 87.208396 63.04324647 87.53837453 67.72265625 87.3359375 C71.51990154 86.77579497 74.20435257 85.65768041 77 83 C82.11400549 76.06733602 81.78249563 67.25429069 82 59 C83.73923512 60.46564757 85.46681279 61.94042584 87.17578125 63.44140625 C89.04687283 65.09333876 89.04687283 65.09333876 91.4375 66.6875 C94.21742039 70.80178218 93.71530299 75.22709335 93 80 C90.44678175 88.11852809 85.32842462 94.14857277 77.83203125 98.16015625 C73.77280265 99.36392749 69.90141517 99.4079862 65.6875 99.4375 C64.87087891 99.47037109 64.05425781 99.50324219 63.21289062 99.53710938 C56.09934579 99.59945917 51.49276491 97.24273722 46.32202148 92.44213867 C38.21410755 83.71470405 37.44198278 75.01776297 37.75 63.4375 C37.76804688 62.14263672 37.78609375 60.84777344 37.8046875 59.51367188 C37.85150678 56.34166586 37.91707527 53.17123296 38 50 C37.19369141 50.01571045 36.38738281 50.0314209 35.55664062 50.04760742 C31.8711663 50.11031976 28.18580465 50.1491062 24.5 50.1875 C23.2315625 50.21263672 21.963125 50.23777344 20.65625 50.26367188 C10.34649798 50.34421681 3.48726937 49.13271835 -4.23828125 41.96875 C-10.14167586 35.37160835 -11.42766134 27.77278697 -11.34375 19.171875 C-10.46438113 11.05769862 -5.94613212 5.25472141 0 0 Z " fill="#FCFDFF" transform="translate(86,76)"/>
<path d="M0 0 C5.8963753 1.74707416 10.80075057 4.14319298 14.8125 8.875 C17.77548316 14.80096632 18.73748806 20.48747292 18.75 27.0625 C18.77449219 27.74376953 18.79898438 28.42503906 18.82421875 29.12695312 C18.85418272 34.32570271 17.28883628 36.83981578 14.375 41 C13.82535597 43.82689964 13.82535597 43.82689964 14 46.625 C14.01289062 47.54539063 14.02578125 48.46578125 14.0390625 49.4140625 C14.38344198 52.06498365 14.95534045 53.74882557 16.375 56 C18.24144906 57.18330183 18.24144906 57.18330183 20.375 58 C20.97731445 58.34764404 21.57962891 58.69528809 22.20019531 59.0534668 C24.78269393 60.17743931 26.49417673 60.15902846 29.296875 60.01953125 C30.24046875 59.99052734 31.1840625 59.96152344 32.15625 59.93164062 C34.120325 59.85281919 36.08395404 59.76186005 38.046875 59.65820312 C44.81321494 59.47893189 49.22839508 60.45864831 54.375 65 C56.44140625 67.47265625 56.44140625 67.47265625 57.9375 70.0625 C58.50726563 71.02027344 59.07703125 71.97804688 59.6640625 72.96484375 C60.80914624 74.99619094 61.94974206 77.03007423 63.0859375 79.06640625 C68.43308617 88.53884383 74.5540595 98.39301983 85.375 102 C90.72795416 102.75112501 95.09104793 102.72490973 99.625 99.5625 C103.80906071 95.97736733 106.64630219 91.74696542 109.375 87 C109.79007813 86.30390625 110.20515625 85.6078125 110.6328125 84.890625 C113.13987393 80.36739529 113.80467874 77.15614487 113.375 72 C108.43474672 69.48800681 103.30166667 69.40308116 97.875 69 C92.27371549 68.58394861 87.5914291 68.15539953 82.375 66 C79.0719047 65.94276815 75.82839299 66.12772237 72.53125 66.3203125 C68.62563944 65.92395103 67.10659581 64.76128707 64.375 62 C63.17309099 58.39427296 63.04829685 55.7897565 63.375 52 C65.55291437 48.49978048 67.53725711 46.47497951 71.375 45 C75.42920592 45.18268519 79.20482291 46.04923111 82.375 48.625 C84.04678051 52.59547871 84.375 56.69467506 84.375 61 C89.90404569 62.28553433 95.26477324 63.11715778 100.9375 63.4375 C107.2753753 63.87149854 113.4509157 64.51895877 118.4375 68.75 C119.97859864 72.44863673 119.99730963 76.11623911 118.73413086 79.93994141 C117.8342575 81.98610322 116.85417831 83.95980373 115.8125 85.9375 C115.45115967 86.6397168 115.08981934 87.34193359 114.7175293 88.06542969 C110.49579331 96.01939825 105.11368282 102.81184288 97.125 107.25 C90.06692001 109.17493091 84.37903255 108.33783326 77.984375 104.79296875 C66.94472078 97.20733808 59.80010072 86.52899381 54.25 74.5 C52.20567999 70.68393597 50.2238601 67.99679925 46.375 66 C42.92755561 65.52186051 39.58845728 65.76914367 36.125 66 C28.20050969 66.26296882 21.77187744 66.30303909 15.375 61 C13.43167487 59.09085396 11.98781107 57.22947413 10.375 55 C7.66892098 52.09657425 7.66892098 52.09657425 4.375 50 C4.045 49.01 3.715 48.02 3.375 47 C1.52725612 46.45127343 1.52725612 46.45127343 -0.6875 46.25 C-9.61991177 44.49466076 -14.39646874 37.39447411 -19.27734375 30.234375 C-22.06301621 25.61581081 -22.11533297 21.24149037 -21.625 16 C-20.61977105 12.16185309 -19.48104873 8.85604873 -16.625 6 C-13.82655166 5.64122457 -12.221692 5.66187453 -9.75 7.0625 C-7.97717817 10.11569315 -8.93264694 12.66411708 -9.625 16 C-11.935 16.66 -14.245 17.32 -16.625 18 C-16.46598447 25.15569891 -12.94753382 30.44367208 -8.625 36 C-5.34689161 39.10390939 -3.23923718 40.56969074 1.3125 40.5625 C6.60009494 40.36520168 8.82152854 38.82681542 12.375 35 C15.84779025 28.0544195 12.58774164 18.89045453 10.375 12 C10.045 11.01 9.715 10.02 9.375 9 C6.95854218 8.83312552 6.95854218 8.83312552 4.375 9 C3.715 9.66 3.055 10.32 2.375 11 C-0.625 11.25 -0.625 11.25 -3.625 11 C-5.625 9 -5.625 9 -5.9375 6.0625 C-5.625 3 -5.625 3 -4.5 1.0625 C-2.625 0 -2.625 0 0 0 Z " fill="#F8FCFF" transform="translate(105.625,40)"/>
<path d="M0 0 C22.05326475 -0.62121873 22.05326475 -0.62121873 29 4 C33.11494203 8.11494203 34.1622882 11.59654578 34.3125 17.3125 C34.25238649 22.37539361 33.53873662 25.18188944 30 29 C25.33403556 32.52327927 21.93133039 34.13291715 16.11328125 34.09765625 C15.26805908 34.09515869 14.42283691 34.09266113 13.55200195 34.09008789 C12.48296631 34.08098389 11.41393066 34.07187988 10.3125 34.0625 C5.2078125 34.0315625 5.2078125 34.0315625 0 34 C0 22.78 0 11.56 0 0 Z " fill="#FAFCFF" transform="translate(41,201)"/>
<path d="M0 0 C3.01125 -0.061875 6.0225 -0.12375 9.125 -0.1875 C10.06230957 -0.21481201 10.99961914 -0.24212402 11.96533203 -0.27026367 C18.33286103 -0.33332866 22.50704668 0.76946282 27.375 5.125 C29.63636856 9.12588284 29.9538944 12.50644786 29 17 C27.56015127 19.44126601 26.05565684 20.99573458 24 23 C25.45044271 27.10958767 27.51110752 30.43258745 30 34 C26.87147062 34.5005647 24.10838038 34.69018314 21 34 C19.15675393 32.09275233 17.89240912 30.09022745 16.484375 27.84765625 C14.73617224 25.67160386 13.85105052 25.34348237 11.125 25 C10.09375 25 9.0625 25 8 25 C8 27.97 8 30.94 8 34 C5.36 34 2.72 34 0 34 C0 22.78 0 11.56 0 0 Z " fill="#FAFCFF" transform="translate(81,201)"/>
<path d="M0 0 C2.64 0 5.28 0 8 0 C8 4.29 8 8.58 8 13 C12.95 13 17.9 13 23 13 C23 8.71 23 4.42 23 0 C25.64 0 28.28 0 31 0 C31 11.22 31 22.44 31 34 C28.36 34 25.72 34 23 34 C23 29.38 23 24.76 23 20 C18.05 20 13.1 20 8 20 C8 24.62 8 29.24 8 34 C5.36 34 2.72 34 0 34 C0 22.78 0 11.56 0 0 Z " fill="#F9FCFF" transform="translate(165,201)"/>
<path d="M0 0 C2.05078125 0.03255208 4.1015625 0.06510417 6.15234375 0.09765625 C8.15335628 4.45434405 10.1469712 8.81431077 12.13378906 13.17749023 C12.81079795 14.66148982 13.48982351 16.14457109 14.17089844 17.62670898 C15.14919451 19.75657076 16.120204 21.88962356 17.08984375 24.0234375 C17.39607666 24.6860408 17.70230957 25.3486441 18.01782227 26.03132629 C19.31740548 28.90792422 20.15234375 30.90179593 20.15234375 34.09765625 C17.51234375 34.09765625 14.87234375 34.09765625 12.15234375 34.09765625 C11.49234375 31.78765625 10.83234375 29.47765625 10.15234375 27.09765625 C4.54234375 27.09765625 -1.06765625 27.09765625 -6.84765625 27.09765625 C-7.17765625 28.74765625 -7.50765625 30.39765625 -7.84765625 32.09765625 C-8.17765625 32.75765625 -8.50765625 33.41765625 -8.84765625 34.09765625 C-11.48765625 34.09765625 -14.12765625 34.09765625 -16.84765625 34.09765625 C-14.54354281 26.63671751 -11.51208596 19.67335662 -8.22265625 12.59765625 C-7.71992188 11.50195312 -7.2171875 10.40625 -6.69921875 9.27734375 C-2.47781206 0.13096258 -2.47781206 0.13096258 0 0 Z " fill="#FAFCFF" transform="translate(216.84765625,200.90234375)"/>
<path d="M0 0 C2.9375 1.6875 2.9375 1.6875 4.9375 4.6875 C3.6175 6.0075 2.2975 7.3275 0.9375 8.6875 C0.298125 8.3575 -0.34125 8.0275 -1 7.6875 C-5.11472697 6.34391568 -8.77872636 5.95158952 -13.0625 6.6875 C-16.2926177 8.5008497 -16.2926177 8.5008497 -18.0625 11.6875 C-18.54341695 14.54471245 -18.34337876 16.73827297 -18.0625 19.6875 C-18.000625 20.47125 -17.93875 21.255 -17.875 22.0625 C-17.13735142 23.87797558 -17.13735142 23.87797558 -15.0625 25 C-9.42625577 26.2916393 -4.11080978 25.48066913 0.9375 22.6875 C2.2575 24.3375 3.5775 25.9875 4.9375 27.6875 C-1.99908054 33.34628939 -7.14275708 33.41895956 -16.0625 32.6875 C-21.11189802 30.33691816 -24.56215922 26.68818156 -27.0625 21.6875 C-27.65594118 15.82118803 -27.8976086 10.18905076 -24.44140625 5.19140625 C-17.85008723 -1.99742611 -9.08675154 -3.54004695 0 0 Z " fill="#FAFCFF" transform="translate(155.0625,202.3125)"/>
<path d="M0 0 C9.9 0 19.8 0 30 0 C30 2.31 30 4.62 30 7 C26.37 7 22.74 7 19 7 C19 15.91 19 24.82 19 34 C16.36 34 13.72 34 11 34 C11 25.09 11 16.18 11 7 C7.37 7 3.74 7 0 7 C0 4.69 0 2.38 0 0 Z " fill="#F8FBFF" transform="translate(237,201)"/>
<path d="M0 0 C12.05526992 -0.43573265 12.05526992 -0.43573265 16 3 C18.37955059 6.56932589 18.52911482 8.58734981 18.4609375 12.7734375 C17.9123355 15.42346411 17.18156354 16.28452505 15.125 18 C8.84497339 22.01921703 9.68402245 21 0 21 C0 14.07 0 7.14 0 0 Z " fill="#8AC8FF" transform="translate(49,208)"/>
<path d="M0 0 C9.625 -0.25 9.625 -0.25 13 2 C13.375 5.5 13.375 5.5 13 9 C8.61501596 11.92332269 5.2225328 11.1356502 0 11 C0 7.37 0 3.74 0 0 Z " fill="#88C7FF" transform="translate(89,208)"/>
<path d="M0 0 C1.423125 -0.061875 2.84625 -0.12375 4.3125 -0.1875 C5.51326172 -0.23970703 5.51326172 -0.23970703 6.73828125 -0.29296875 C9 0 9 0 10.80859375 1.3203125 C12 3 12 3 11.75 6.0625 C11 9 11 9 10 11 C10.89163577 13.11683841 10.89163577 13.11683841 12 15 C8.125 13.25 8.125 13.25 7 11 C4.47266765 10.34444881 4.47266765 10.34444881 2 10 C2 11.65 2 13.3 2 15 C1.34 15 0.68 15 0 15 C0 10.05 0 5.1 0 0 Z " fill="#C4E4EB" transform="translate(198,255)"/>
<path d="M0 0 C3 1 3 1 4.60546875 3.94140625 C5.12753906 5.13636719 5.64960937 6.33132813 6.1875 7.5625 C6.71730469 8.76003906 7.24710938 9.95757812 7.79296875 11.19140625 C8.19128906 12.11824219 8.58960937 13.04507812 9 14 C8.01 14.495 8.01 14.495 7 15 C6.67 13.68 6.34 12.36 6 11 C3.03 11 0.06 11 -3 11 C-3.33 12.32 -3.66 13.64 -4 15 C-4.66 15 -5.32 15 -6 15 C-4.40109514 9.80355921 -2.25861997 4.93387858 0 0 Z " fill="#C7E5EA" transform="translate(67,255)"/>
<path d="M0 0 C3.86248624 3.34316036 4.54212374 7.20983513 6 12 C2.7 12 -0.6 12 -4 12 C-3.45660208 7.43545749 -2.20536179 4.0271824 0 0 Z " fill="#92CCFF" transform="translate(218,210)"/>
<path d="M0 0 C0.66 0 1.32 0 2 0 C2 2.31 2 4.62 2 7 C4.97 7 7.94 7 11 7 C11 4.69 11 2.38 11 0 C11.66 0 12.32 0 13 0 C13 4.95 13 9.9 13 15 C12.34 15 11.68 15 11 15 C11 12.69 11 10.38 11 8 C8.03 8 5.06 8 2 8 C2 10.31 2 12.62 2 15 C1.34 15 0.68 15 0 15 C0 10.05 0 5.1 0 0 Z " fill="#C5E5EA" transform="translate(122,255)"/>
<path d="M0 0 C3.63 0 7.26 0 11 0 C11 0.66 11 1.32 11 2 C8.03 2 5.06 2 2 2 C2 3.65 2 5.3 2 7 C4.64 7 7.28 7 10 7 C10 7.33 10 7.66 10 8 C7.36 8 4.72 8 2 8 C2 9.98 2 11.96 2 14 C4.97 14 7.94 14 11 14 C11 14.33 11 14.66 11 15 C7.37 15 3.74 15 0 15 C0 10.05 0 5.1 0 0 Z " fill="#C4E4EB" transform="translate(42,255)"/>
<path d="M0 0 C1.670625 0.061875 1.670625 0.061875 3.375 0.125 C3.705 0.785 4.035 1.445 4.375 2.125 C1.735 2.125 -0.905 2.125 -3.625 2.125 C-3.625 3.445 -3.625 4.765 -3.625 6.125 C-2.696875 6.24875 -1.76875 6.3725 -0.8125 6.5 C2.375 7.125 2.375 7.125 5.375 9.125 C4.5 14 4.5 14 3.375 15.125 C-3.15042373 15.36228814 -3.15042373 15.36228814 -5.625 14.125 C-5.295 13.465 -4.965 12.805 -4.625 12.125 C-3.67625 12.29 -2.7275 12.455 -1.75 12.625 C1.17668901 13.1776635 1.17668901 13.1776635 3.375 13.125 C3.045 12.135 2.715 11.145 2.375 10.125 C1.22 9.67125 0.065 9.2175 -1.125 8.75 C-4.625 7.125 -4.625 7.125 -5.6875 4.5625 C-5.57852884 0.31262468 -4.02097931 0.13865446 0 0 Z " fill="#C1E3EC" transform="translate(162.625,254.875)"/>
<path d="M0 0 C0.66 0 1.32 0 2 0 C2.67354499 1.43429001 3.33859701 2.87257057 4 4.3125 C4.556875 5.51326172 4.556875 5.51326172 5.125 6.73828125 C6 9 6 9 6 12 C6.66 12 7.32 12 8 12 C8.1546875 10.9790625 8.1546875 10.9790625 8.3125 9.9375 C9.14725019 6.37084011 10.49472754 3.33777806 12 0 C12.66 0 13.32 0 14 0 C12.36041242 5.23272633 10.61047965 10.15196636 8 15 C5 14 5 14 3.61328125 11.6015625 C3.18402344 10.61929687 2.75476563 9.63703125 2.3125 8.625 C1.87550781 7.64789063 1.43851563 6.67078125 0.98828125 5.6640625 C0 3 0 3 0 0 Z " fill="#C4E4EB" transform="translate(218,255)"/>
<path d="M0 0 C2.31 0 4.62 0 7 0 C7.625 2.375 7.625 2.375 8 5 C6 7 6 7 2.875 7.125 C1.451875 7.063125 1.451875 7.063125 0 7 C0 4.69 0 2.38 0 0 Z " fill="#88C7FE" transform="translate(200,257)"/>
<path d="M0 0 C0.66 0 1.32 0 2 0 C2 4.29 2 8.58 2 13 C4.64 13 7.28 13 10 13 C10 13.66 10 14.32 10 15 C6.7 15 3.4 15 0 15 C0 10.05 0 5.1 0 0 Z " fill="#C0E2EC" transform="translate(85,255)"/>
<path d="M0 0 C3.96 0 7.92 0 12 0 C12 0.33 12 0.66 12 1 C10.35 1 8.7 1 7 1 C7 5.62 7 10.24 7 15 C6.34 15 5.68 15 5 15 C5 10.71 5 6.42 5 2 C3.35 2 1.7 2 0 2 C0 1.34 0 0.68 0 0 Z " fill="#BFE2EC" transform="translate(101,255)"/>
<path d="M0 0 C2.46278801 2.46278801 2.99771255 4.70676982 4 8 C1.69 8 -0.62 8 -3 8 C-1.125 2.25 -1.125 2.25 0 0 Z " fill="#92CCFB" transform="translate(68,257)"/>
</svg>
